<svg id="Layer_1" data-name="Layer 1" xmlns="http://www.w3.org/2000/svg" xmlns:xlink="http://www.w3.org/1999/xlink" viewBox="0 0 1920 76.36"><defs><style>.cls-1{fill:none;}.cls-2{clip-path:url(#clip-path);}.cls-3{fill:url(#linear-gradient);}</style><clipPath id="clip-path"><rect class="cls-1" width="1920" height="76"/></clipPath><linearGradient id="linear-gradient" x1="960" y1="-1614.98" x2="960" y2="2440.32" gradientTransform="matrix(1, 0, 0, -1, 0, 77.36)" gradientUnits="userSpaceOnUse"><stop offset="0.5" stop-color="#fff"/><stop offset="0.58" stop-color="#fcedd4"/><stop offset="0.73" stop-color="#f8cc84"/><stop offset="0.86" stop-color="#f5b34a"/><stop offset="0.95" stop-color="#f3a426"/><stop offset="1" stop-color="#f39f19"/></linearGradient></defs><g class="cls-2"><path class="cls-3" d="M1313.09-1905a9.52,9.52,0,0,1-5.3-1.61,9.52,9.52,0,0,1-3.51-4.27l-16.89-40.86a32.37,32.37,0,0,0-11.93-14.54,32.4,32.4,0,0,0-18-5.46H662.54a32.4,32.4,0,0,0-18,5.46,32.37,32.37,0,0,0-11.93,14.54l-16.89,40.86a9.52,9.52,0,0,1-3.51,4.27,9.55,9.55,0,0,1-5.3,1.61H0V9.61H374.37a9.54,9.54,0,0,1,8.81,5.89l16.89,40.86a32.39,32.39,0,0,0,29.93,20H1490a32.39,32.39,0,0,0,29.93-20l16.89-40.86a9.54,9.54,0,0,1,8.81-5.89H1920V-1905Z"/></g></svg>